<svg width="8" height="28" viewBox="0 0 8 28" fill="none" xmlns="http://www.w3.org/2000/svg">
<g clip-path="url(#clip0_1_249)">
<path d="M3.99998 8.16667C2.71128 8.16667 1.66665 7.122 1.66665 5.83333C1.66665 4.54467 2.71128 3.5 3.99998 3.5C5.28868 3.5 6.33331 4.54467 6.33331 5.83333C6.33331 7.122 5.28868 8.16667 3.99998 8.16667Z" fill="#394149"/>
<path d="M3.99998 16.3334C2.71128 16.3334 1.66665 15.2887 1.66665 14C1.66665 12.7113 2.71128 11.6667 3.99998 11.6667C5.28868 11.6667 6.33331 12.7113 6.33331 14C6.33331 15.2887 5.28868 16.3334 3.99998 16.3334Z" fill="#394149"/>
<path d="M3.99998 24.5C2.71128 24.5 1.66665 23.4553 1.66665 22.1666C1.66665 20.8779 2.71128 19.8333 3.99998 19.8333C5.28868 19.8333 6.33331 20.8779 6.33331 22.1666C6.33331 23.4553 5.28868 24.5 3.99998 24.5Z" fill="#394149"/>
</g>
<defs>
<clipPath id="clip0_1_249">
<rect width="28" height="8" fill="white" transform="translate(8) rotate(90)"/>
</clipPath>
</defs>
</svg>
