<svg width="204" height="79" viewBox="0 0 204 79" fill="none" xmlns="http://www.w3.org/2000/svg">
<g clip-path="url(#clip0_3_512)">
<path d="M48.4231 0C40.4563 0 32.816 3.18647 27.1827 8.85843L8.79805 27.3693C3.16475 33.0412 0 40.734 0 48.7554C0 65.4591 13.4487 79 30.0385 79C38.0052 79 45.6455 75.8134 51.2788 70.1415L63.9956 57.3374C63.9956 57.3372 63.9958 57.3377 63.9956 57.3374L101.048 20.0307C103.738 17.3218 107.387 15.8 111.192 15.8C117.562 15.8 122.963 19.9802 124.835 25.7647L136.529 13.9908C131.194 5.5783 121.84 0 111.192 0C103.226 0 95.5852 3.18647 89.952 8.85843L40.1828 58.9693C37.4923 61.6782 33.8433 63.2 30.0385 63.2C22.1153 63.2 15.6923 56.7331 15.6923 48.7554C15.6923 44.9244 17.2038 41.2504 19.8942 38.5415L38.2788 20.0307C40.9692 17.3218 44.6182 15.8 48.4231 15.8C54.7934 15.8 60.1936 19.9804 62.066 25.7651L73.7599 13.9911C68.4253 5.57845 59.0713 0 48.4231 0Z" fill="#394149"/>
<path d="M102.952 58.9693C100.262 61.6782 96.6125 63.2 92.8077 63.2C86.4384 63.2 81.0384 59.0209 79.1656 53.2373L67.4722 65.0109C72.807 73.4223 82.1604 79 92.8077 79C100.774 79 108.415 75.8134 114.048 70.1415L163.817 20.0307C166.508 17.3218 170.157 15.8 173.961 15.8C181.885 15.8 188.308 22.267 188.308 30.2446C188.308 34.0756 186.796 37.7496 184.106 40.4585L165.721 58.9693C163.031 61.6782 159.382 63.2 155.577 63.2C149.207 63.2 143.807 59.0201 141.934 53.236L130.241 65.0099C135.575 73.4221 144.929 79 155.577 79C163.544 79 171.184 75.8134 176.817 70.1415L195.202 51.6307C200.835 45.9588 204 38.266 204 30.2446C204 13.541 190.551 0 173.961 0C165.995 0 158.354 3.18647 152.721 8.85843L102.952 58.9693Z" fill="#394149"/>
</g>
<defs>
<clipPath id="clip0_3_512">
<rect width="204" height="79" fill="white"/>
</clipPath>
</defs>
</svg>
